nColumns=19
nRows=73
DataType=double
version=3
OpenSimVersion=4.1
endheader
time	ground_force_1_vx	ground_force_1_vy	ground_force_1_vz	ground_force_1_px	ground_force_1_py	ground_force_1_pz	ground_force_1_mx	ground_force_1_my	ground_force_1_mz	ground_force_2_vx	ground_force_2_vy	ground_force_2_vz	ground_force_2_px	ground_force_2_py	ground_force_2_pz	ground_force_2_mx	ground_force_2_my	ground_force_2_mz
0	-115.404	612.252	-1.66889	0.269208	0.006	-0.18293	0	-0.818388	0	0	0	0	0.798467	0	-0.211949	0	0	0
0.01	-118.535	628.348	-4.94051	0.27225	0.006	-0.18192	0	-0.651115	0	0	0	0	0.798467	0	-0.211949	0	0	0
0.02	-121.387	645.367	-8.18778	0.275938	0.006	-0.180722	0	-0.450133	0	0	0	0	0.798467	0	-0.211949	0	0	0
0.03	-123.744	662.791	-11.274	0.279644	0.006	-0.17955	0	-0.225584	0	0	0	0	0.798467	0	-0.211949	0	0	0
0.04	-125.441	680.164	-14.0901	0.283284	0.006	-0.178424	0	0.008579	0	0	0	0	0.798467	0	-0.211949	0	0	0
0.05	-126.348	697.044	-16.5411	0.286799	0.006	-0.177358	0	0.238593	0	0	0	0	0.798467	0	-0.211949	0	0	0
0.06	-126.385	712.953	-18.5616	0.290158	0.006	-0.176351	0	0.451538	0	0	0	0	0.798467	0	-0.211949	0	0	0
0.07	-125.532	727.381	-20.1365	0.29336	0.006	-0.175393	0	0.635837	0	0	0	0	0.798467	0	-0.211949	0	0	0
0.08	-123.833	739.833	-21.2957	0.296426	0.006	-0.174465	0	0.783263	0	0	0	0	0.798467	0	-0.211949	0	0	0
0.09	-121.378	749.89	-22.0976	0.299395	0.006	-0.173545	0	0.889547	0	0	0	0	0.798467	0	-0.211949	0	0	0
0.1	-118.289	757.251	-22.6138	0.302313	0.006	-0.172612	0	0.953744	0	0	0	0	0.798467	0	-0.211949	0	0	0
0.11	-114.696	761.768	-22.9176	0.305229	0.006	-0.171645	0	0.977671	0	0	0	0	0.798467	0	-0.211949	0	0	0
0.12	-110.723	763.444	-23.0751	0.308187	0.006	-0.170626	0	0.965182	0	0	0	0	0.798467	0	-0.211949	0	0	0
0.13	-106.489	762.402	-23.1406	0.311224	0.006	-0.169543	0	0.920926	0	0	0	0	0.798467	0	-0.211949	0	0	0
0.14	-102.1	758.862	-23.1501	0.314371	0.006	-0.168387	0	0.84915	0	0	0	0	0.798467	0	-0.211949	0	0	0
0.15	-97.653	753.11	-23.1173	0.317647	0.006	-0.167153	0	0.753101	0	0	0	0	0.798467	0	-0.211949	0	0	0
0.16	-93.2287	745.493	-23.0327	0.321059	0.006	-0.165847	0	0.634887	0	0	0	0	0.798467	0	-0.211949	0	0	0
0.17	-88.8843	736.423	-22.8712	0.324599	0.006	-0.164477	0	0.49563	0	0	0	0	0.798467	0	-0.211949	0	0	0
0.18	-84.6566	726.377	-22.6057	0.328244	0.006	-0.16306	0	0.336015	0	0	0	0	0.798467	0	-0.211949	0	0	0
0.19	-80.5684	715.867	-22.2189	0.331962	0.006	-0.161616	0	0.156982	0	0	0	0	0.798467	0	-0.211949	0	0	0
0.2	-76.6352	705.395	-21.7115	0.335711	0.006	-0.160166	0	-0.039605	0	0	0	0	0.798467	0	-0.211949	0	0	0
0.21	-72.8688	695.399	-21.1052	0.339445	0.006	-0.158731	0	-0.25064	0	0	0	0	0.798467	0	-0.211949	0	0	0
0.22	-69.2749	686.231	-20.4395	0.343115	0.006	-0.15733	0	-0.471944	0	0	0	0	0.798467	0	-0.211949	0	0	0
0.23	-65.8481	678.149	-19.7606	0.346671	0.006	-0.155983	0	-0.69888	0	0	0	0	0.798467	0	-0.211949	0	0	0
0.24	-62.5706	671.325	-19.1107	0.350068	0.006	-0.154705	0	-0.927153	0	0	0	0	0.798467	0	-0.211949	0	0	0
0.25	-59.4127	665.858	-18.5185	0.35326	0.006	-0.15351	0	-1.15355	0	0	0	0	0.798467	0	-0.211949	0	0	0
0.26	-56.3352	661.788	-17.9966	0.356214	0.006	-0.152409	0	-1.37631	0	0	0	0	0.798467	0	-0.211949	0	0	0
0.27	-53.2961	659.102	-17.544	0.358905	0.006	-0.151413	0	-1.59504	0	0	0	0	0.798467	0	-0.211949	0	0	0
0.28	-50.2562	657.75	-17.1523	0.361322	0.006	-0.150525	0	-1.81027	0	0	0	0	0.798467	0	-0.211949	0	0	0
0.29	-47.1818	657.652	-16.8147	0.363467	0.006	-0.149749	0	-2.02286	0	0	0	0	0.798467	0	-0.211949	0	0	0
0.3	-44.0457	658.701	-16.5311	0.365354	0.006	-0.149081	0	-2.23352	0	0	0	0	0.798467	0	-0.211949	0	0	0
0.31	-40.8271	660.776	-16.3114	0.367007	0.006	-0.148517	0	-2.44264	0	0	0	0	0.798467	0	-0.211949	0	0	0
0.32	-37.5115	663.749	-16.1738	0.368459	0.006	-0.148047	0	-2.65021	0	0	0	0	0.798467	0	-0.211949	0	0	0
0.33	-34.089	667.496	-16.1415	0.369748	0.006	-0.14766	0	-2.85585	0	0	0	0	0.798467	0	-0.211949	0	0	0
0.34	-30.5537	671.908	-16.2375	0.370916	0.006	-0.147345	0	-3.05897	0	0	0	0	0.798467	0	-0.211949	0	0	0
0.35	-26.9023	676.899	-16.481	0.372002	0.006	-0.14709	0	-3.25899	0	0	0	0	0.798467	0	-0.211949	0	0	0
0.36	-23.1321	682.405	-16.8847	0.373046	0.006	-0.146887	0	-3.45549	0	0	0	0	0.798467	0	-0.211949	0	0	0
0.37	-19.24	688.389	-17.4543	0.374084	0.006	-0.146725	0	-3.64806	0	0	0	0	0.798467	0	-0.211949	0	0	0
0.38	-15.2211	694.833	-18.1871	0.375145	0.006	-0.1466	0	-3.83611	0	0	0	0	0.798467	0	-0.211949	0	0	0
0.39	-11.0668	701.738	-19.0714	0.376257	0.006	-0.146507	0	-4.01885	0	0	0	0	0.798467	0	-0.211949	0	0	0
0.4	-6.76292	709.123	-20.0867	0.37744	0.006	-0.146443	0	-4.19508	0	0	0	0	0.798467	0	-0.211949	0	0	0
0.41	-2.29064	717.014	-21.205	0.37871	0.006	-0.146408	0	-4.36329	0	0	0	0	0.798467	0	-0.211949	0	0	0
0.42	2.3702	725.424	-22.3928	0.380082	0.006	-0.146401	0	-4.52162	0	0	0	0	0.798467	0	-0.211949	0	0	0
0.43	7.23725	734.341	-23.614	0.381569	0.006	-0.146421	0	-4.66782	0	0	0	0	0.798467	0	-0.211949	0	0	0
0.44	12.3228	743.703	-24.8312	0.383183	0.006	-0.14647	0	-4.79917	0	0	0	0	0.798467	0	-0.211949	0	0	0
0.45	17.6324	753.398	-26.0065	0.384935	0.006	-0.146548	0	-4.91249	0	0	0	0	0.798467	0	-0.211949	0	0	0
0.46	23.1625	763.271	-27.1017	0.386833	0.006	-0.146658	0	-5.00435	0	0	0	0	0.798467	0	-0.211949	0	0	0
0.47	28.899	773.129	-28.0795	0.388882	0.006	-0.146801	0	-5.07142	0	0	0	0	0.798467	0	-0.211949	0	0	0
0.48	34.8146	782.74	-28.9041	0.391087	0.006	-0.14698	0	-5.11079	0	0	0	0	0.798467	0	-0.211949	0	0	0
0.49	40.8692	791.821	-29.5426	0.393447	0.006	-0.147197	0	-5.12016	0	0	0	0	0.798467	0	-0.211949	0	0	0
0.5	47.0125	800.044	-29.9629	0.395957	0.006	-0.147455	0	-5.09809	0	0	0	0	0.798467	0	-0.211949	0	0	0
0.51	53.189	807.031	-30.1317	0.398609	0.006	-0.147754	0	-5.04406	0	0	0	0	0.798467	0	-0.211949	0	0	0
0.52	59.3403	812.374	-30.0149	0.401391	0.006	-0.148098	0	-4.95851	0	0	0	0	0.798467	0	-0.211949	0	0	0
0.53	65.4051	815.641	-29.5794	0.404286	0.006	-0.148485	0	-4.84281	0	0	0	0	0.798467	0	-0.211949	0	0	0
0.54	71.3176	816.384	-28.7963	0.407273	0.006	-0.148914	0	-4.69921	0	0	0	0	0.798467	0	-0.211949	0	0	0
0.55	77.0045	814.148	-27.6442	0.41033	0.006	-0.149383	0	-4.53068	0	2.07838	34.4675	-10.1325	0.828789	0.006	-0.227076	0	0.437389	0
0.56	82.3789	808.485	-26.1124	0.413435	0.006	-0.149886	0	-4.34075	0	1.01317	54.6145	-11.8877	0.852704	0.006	-0.238214	0	0.592677	0
0.57	87.3347	798.965	-24.2022	0.416569	0.006	-0.150418	0	-4.1333	0	-0.732561	79.0946	-13.6667	0.867196	0.006	-0.244299	0	0.718063	0
0.58	91.7443	785.192	-21.9302	0.419714	0.006	-0.150972	0	-3.91206	0	-3.32164	107.915	-15.3473	0.877403	0.006	-0.248094	0	0.837065	0
0.59	95.4606	766.822	-19.3302	0.42286	0.006	-0.151541	0	-3.68019	0	-6.94034	140.813	-16.7687	0.885389	0.006	-0.250697	0	0.956435	0
0.6	98.3215	743.581	-16.4543	0.426004	0.006	-0.152117	0	-3.4402	0	-11.7408	177.303	-17.7335	0.892134	0.006	-0.252642	0	1.07575	0
0.61	100.16	715.302	-13.3721	0.429149	0.006	-0.152694	0	-3.19422	0	-17.718	216.787	-18.0478	0.898128	0.006	-0.254218	0	1.19092	0
0.62	100.82	681.956	-10.171	0.432301	0.006	-0.153262	0	-2.94402	0	-24.685	258.626	-17.568	0.903607	0.006	-0.255583	0	1.29485	0
0.63	100.166	643.685	-6.95712	0.435475	0.006	-0.153812	0	-2.69062	0	-32.3625	302.093	-16.2153	0.908674	0.006	-0.256817	0	1.37751	0
0.64	98.0988	600.832	-3.85176	0.438691	0.006	-0.154334	0	-2.4343	0	-40.433	346.329	-13.9918	0.913368	0.006	-0.257953	0	1.42737	0
0.65	94.574	553.961	-0.982129	0.441978	0.006	-0.154815	0	-2.17508	0	-48.5398	390.404	-10.9942	0.917701	0.006	-0.259	0	1.43347	0
0.66	89.6152	503.874	1.53159	0.445372	0.006	-0.155243	0	-1.91391	0	-56.3284	433.464	-7.39736	0.921681	0.006	-0.259952	0	1.38816	0
0.67	83.3227	451.588	3.58991	0.448922	0.006	-0.155604	0	-1.65358	0	-63.5038	474.875	-3.40986	0.925325	0.006	-0.260804	0	1.29045	0
0.68	75.8785	398.293	5.12756	0.452686	0.006	-0.155886	0	-1.399	0	-69.8553	514.301	0.763958	0.928658	0.006	-0.261549	0	1.14655	0
0.69	67.5451	345.259	6.12228	0.456735	0.006	-0.156075	0	-1.15656	0	-75.2452	551.63	4.92197	0.931707	0.006	-0.262184	0	0.96599	0
0.7	58.6527	293.742	6.59745	0.461161	0.006	-0.15616	0	-0.932886	0	-79.5799	586.83	8.86237	0.934493	0.006	-0.262703	0	0.759036	0
0.71	49.5699	244.875	6.6167	0.466087	0.006	-0.156128	0	-0.733347	0	-82.8035	619.809	12.4122	0.937041	0.006	-0.263106	0	0.536933	0
0.72	40.6638	199.585	6.27207	0.471689	0.006	-0.155964	0	-0.560997	0	-84.9053	650.378	15.4611	0.939382	0.006	-0.263398	0	0.311531	0
